<svg xmlns="http://www.w3.org/2000/svg" width="2048" height="2048" viewBox="0 0 1536 1536"><defs><clipPath id="a"><path d="M808 302.95h278V528.7H808Zm0 0"/></clipPath><clipPath id="b"><path d="M385 214.465h418V827H385Zm0 0"/></clipPath><clipPath id="c"><path d="M807.664 578.688h397.227V915.41H807.664Zm0 0"/></clipPath><clipPath id="d"><path d="M861.664 578.688h288.621c29.82 0 54 24.175 54 54V861.41c0 29.82-24.18 54-54 54h-288.62c-29.825 0-54-24.18-54-54V632.688c0-29.825 24.175-54 54-54m0 0"/></clipPath><clipPath id="f"><path d="M.664.688h396.613V337.41H.664Zm0 0"/></clipPath><clipPath id="g"><path d="M54.664.688h288.621c29.82 0 54 24.175 54 54V283.41c0 29.82-24.18 54-54 54H54.665c-29.825 0-54-24.18-54-54V54.687c0-29.824 24.175-54 54-54m0 0"/></clipPath><clipPath id="e"><path d="M0 0h398v338H0z"/></clipPath><linearGradient id="h" x1="150.77" x2="150.77" y1="0" y2="256" gradientTransform="translate(.656 .686)scale(1.31532)" gradientUnits="userSpaceOnUse"><stop offset="0" stop-color="#226214"/><stop offset=".008" stop-color="#226214"/><stop offset=".016" stop-color="#226314"/><stop offset=".023" stop-color="#236414"/><stop offset=".031" stop-color="#236514"/><stop offset=".039" stop-color="#236615"/><stop offset=".047" stop-color="#236715"/><stop offset=".055" stop-color="#246715"/><stop offset=".063" stop-color="#246815"/><stop offset=".07" stop-color="#246915"/><stop offset=".078" stop-color="#246a15"/><stop offset=".086" stop-color="#256b15"/><stop offset=".094" stop-color="#256c16"/><stop offset=".102" stop-color="#256c16"/><stop offset=".109" stop-color="#256d16"/><stop offset=".117" stop-color="#266e16"/><stop offset=".125" stop-color="#266f16"/><stop offset=".133" stop-color="#267016"/><stop offset=".141" stop-color="#277016"/><stop offset=".148" stop-color="#277116"/><stop offset=".156" stop-color="#277217"/><stop offset=".164" stop-color="#277317"/><stop offset=".172" stop-color="#287417"/><stop offset=".18" stop-color="#287517"/><stop offset=".188" stop-color="#287517"/><stop offset=".195" stop-color="#287617"/><stop offset=".203" stop-color="#297717"/><stop offset=".211" stop-color="#297818"/><stop offset=".219" stop-color="#297918"/><stop offset=".227" stop-color="#297a18"/><stop offset=".234" stop-color="#2a7a18"/><stop offset=".242" stop-color="#2a7b18"/><stop offset=".25" stop-color="#2a7c18"/><stop offset=".258" stop-color="#2a7d18"/><stop offset=".266" stop-color="#2b7e18"/><stop offset=".273" stop-color="#2b7f19"/><stop offset=".281" stop-color="#2b7f19"/><stop offset=".289" stop-color="#2b8019"/><stop offset=".297" stop-color="#2c8119"/><stop offset=".305" stop-color="#2c8219"/><stop offset=".313" stop-color="#2c8319"/><stop offset=".32" stop-color="#2c8419"/><stop offset=".328" stop-color="#2d841a"/><stop offset=".336" stop-color="#2d851a"/><stop offset=".344" stop-color="#2d861a"/><stop offset=".352" stop-color="#2d871a"/><stop offset=".359" stop-color="#2e881a"/><stop offset=".367" stop-color="#2e891a"/><stop offset=".375" stop-color="#2e891a"/><stop offset=".383" stop-color="#2e8a1a"/><stop offset=".391" stop-color="#2f8b1b"/><stop offset=".398" stop-color="#2f8c1b"/><stop offset=".406" stop-color="#2f8d1b"/><stop offset=".414" stop-color="#308d1b"/><stop offset=".422" stop-color="#308e1b"/><stop offset=".43" stop-color="#308f1b"/><stop offset=".438" stop-color="#30901b"/><stop offset=".445" stop-color="#31911b"/><stop offset=".453" stop-color="#31921c"/><stop offset=".461" stop-color="#31921c"/><stop offset=".469" stop-color="#31931c"/><stop offset=".477" stop-color="#32941c"/><stop offset=".484" stop-color="#32951c"/><stop offset=".492" stop-color="#32961c"/><stop offset=".5" stop-color="#32971c"/><stop offset=".508" stop-color="#33971d"/><stop offset=".516" stop-color="#33981d"/><stop offset=".523" stop-color="#33991d"/><stop offset=".531" stop-color="#339a1d"/><stop offset=".539" stop-color="#349b1d"/><stop offset=".547" stop-color="#349c1d"/><stop offset=".555" stop-color="#349c1d"/><stop offset=".563" stop-color="#349d1d"/><stop offset=".57" stop-color="#359e1e"/><stop offset=".578" stop-color="#359f1e"/><stop offset=".586" stop-color="#35a01e"/><stop offset=".594" stop-color="#35a11e"/><stop offset=".602" stop-color="#36a11e"/><stop offset=".609" stop-color="#36a21e"/><stop offset=".617" stop-color="#36a31e"/><stop offset=".625" stop-color="#36a41f"/><stop offset=".633" stop-color="#37a51f"/><stop offset=".641" stop-color="#37a51f"/><stop offset=".648" stop-color="#37a61f"/><stop offset=".656" stop-color="#38a71f"/><stop offset=".664" stop-color="#38a81f"/><stop offset=".672" stop-color="#38a91f"/><stop offset=".68" stop-color="#38aa1f"/><stop offset=".688" stop-color="#39aa20"/><stop offset=".695" stop-color="#39ab20"/><stop offset=".703" stop-color="#39ac20"/><stop offset=".711" stop-color="#39ad20"/><stop offset=".719" stop-color="#3aae20"/><stop offset=".727" stop-color="#3aaf20"/><stop offset=".734" stop-color="#3aaf20"/><stop offset=".742" stop-color="#3ab021"/><stop offset=".75" stop-color="#3bb121"/><stop offset=".758" stop-color="#3bb221"/><stop offset=".766" stop-color="#3bb321"/><stop offset=".773" stop-color="#3bb421"/><stop offset=".781" stop-color="#3cb421"/><stop offset=".789" stop-color="#3cb521"/><stop offset=".797" stop-color="#3cb621"/><stop offset=".805" stop-color="#3cb722"/><stop offset=".813" stop-color="#3db822"/><stop offset=".82" stop-color="#3db922"/><stop offset=".828" stop-color="#3db922"/><stop offset=".836" stop-color="#3dba22"/><stop offset=".844" stop-color="#3ebb22"/><stop offset=".852" stop-color="#3ebc22"/><stop offset=".859" stop-color="#3ebd23"/><stop offset=".867" stop-color="#3ebe23"/><stop offset=".875" stop-color="#3fbe23"/><stop offset=".883" stop-color="#3fbf23"/><stop offset=".891" stop-color="#3fc023"/><stop offset=".898" stop-color="#40c123"/><stop offset=".906" stop-color="#40c223"/><stop offset=".914" stop-color="#40c223"/><stop offset=".922" stop-color="#40c324"/><stop offset=".93" stop-color="#41c424"/><stop offset=".938" stop-color="#41c524"/><stop offset=".945" stop-color="#41c624"/><stop offset=".953" stop-color="#41c724"/><stop offset=".961" stop-color="#42c724"/><stop offset=".969" stop-color="#42c824"/><stop offset=".977" stop-color="#42c925"/><stop offset=".984" stop-color="#42ca25"/><stop offset=".992" stop-color="#43cb25"/><stop offset="1" stop-color="#43cc25"/></linearGradient></defs><g clip-path="url(#a)"><path fill="#00a811" d="M990.93 528.922c.539 0 1.074-.18 1.61-.18.358 0 .714 0 1.073-.18 3.04-.535 5.899-2.144 7.864-4.468l79.378-78.301c5.543-5.543 5.72-14.66.18-20.203-5.543-5.543-14.66-5.723-20.203-.18l-55.422 54.883V317.25c0-7.863-6.433-14.3-14.3-14.3H822.343c-7.864 0-14.301 6.437-14.301 14.3 0 7.867 6.437 14.305 14.3 14.305H976.63v148.918l-55.602-55.063c-5.539-5.543-14.656-5.543-20.199.18-2.683 2.86-4.113 6.433-4.113 10.012 0 3.753 1.43 7.328 4.293 10.191l79.91 79.016c2.684 2.863 6.437 4.113 10.012 4.113m0 0"/></g><g clip-path="url(#b)"><path fill="#fff" d="M765.95 213.54H562.18v113.523a65 65 0 0 1-.36 6.207 64 64 0 0 1-.965 6.144 66 66 0 0 1-1.554 6.024 65 65 0 0 1-2.137 5.84 65 65 0 0 1-2.695 5.605 65 65 0 0 1-3.227 5.316 64 64 0 0 1-3.73 4.977 65 65 0 0 1-4.2 4.59 63 63 0 0 1-4.625 4.156 64 64 0 0 1-5.003 3.691 65 65 0 0 1-5.344 3.184 65 65 0 0 1-5.63 2.648 63.88 63.88 0 0 1-11.89 3.594 64 64 0 0 1-6.152.91 64 64 0 0 1-6.211.313H385.086v400.742q-.01 1.74.148 3.48.159 1.735.493 3.446.328 1.715.828 3.383.498 1.674 1.16 3.285a35 35 0 0 0 1.48 3.156 34 34 0 0 0 1.782 2.988 36 36 0 0 0 2.07 2.805 37 37 0 0 0 2.336 2.582 35.6 35.6 0 0 0 5.383 4.41 35 35 0 0 0 6.14 3.266q1.61.667 3.285 1.164 1.67.499 3.38.832 1.712.332 3.449.496 1.734.159 3.48.148h345.45a35.937 35.937 0 0 0 6.98-.625 35.72 35.72 0 0 0 15.77-7.293 36 36 0 0 0 2.62-2.332 37 37 0 0 0 2.375-2.582 35.378 35.378 0 0 0 3.945-5.793 35 35 0 0 0 1.528-3.16 35 35 0 0 0 1.21-3.293 35.2 35.2 0 0 0 1.427-6.86q.186-1.745.203-3.503V248.949a36 36 0 0 0-.203-3.5 36 36 0 0 0-.551-3.465 35 35 0 0 0-.883-3.39 35 35 0 0 0-1.21-3.293 36 36 0 0 0-1.528-3.156 36 36 0 0 0-3.946-5.79 36.158 36.158 0 0 0-5-4.906 35 35 0 0 0-2.835-2.062 34 34 0 0 0-3.024-1.778 35 35 0 0 0-3.183-1.472 37 37 0 0 0-3.313-1.153 36.027 36.027 0 0 0-6.879-1.305 35 35 0 0 0-3.504-.14m-32.388 517.01H453.536v-27.784h280.028Zm0-83.359H453.536v-28.093h280.028Zm0-83.636H453.536V535.55h280.028Zm0-83.637H453.536v-27.445h280.028Zm0 0"/></g><path fill="#fff" d="M534.023 327.063v-94.075l-64.836 64.621-64.37 65.051h93.64a35.514 35.514 0 0 0 6.95-.672 35 35 0 0 0 6.683-2.015 35 35 0 0 0 3.16-1.493 35 35 0 0 0 2.996-1.793 35.8 35.8 0 0 0 5.399-4.43 35.446 35.446 0 0 0 7.703-11.562 35 35 0 0 0 2.011-6.683 34 34 0 0 0 .504-3.461q.165-1.741.16-3.488m0 0"/><g clip-path="url(#c)"><g clip-path="url(#d)"><g clip-path="url(#e)" transform="translate(807 578)"><g clip-path="url(#f)"><g clip-path="url(#g)"><path fill="url(#h)" d="M.664.688V337.41h396.613V.688Zm0 0"/></g></g></g></g></g><path fill="#fff" d="M915.628 803.672h-18.844V699.688h26.891l26.313 76.453h1.5l26.171-76.453h26.25v103.984h-19.5V734.97l-1.78-.297-24.032 69h-17.14l-24.048-69-1.78.297ZM1068.404 699.688q25.325.002 38.656 13.094 13.343 13.078 13.344 38.89-.001 25.751-13.344 38.875-13.332 13.125-38.656 13.125h-37.407V699.688Zm-1.204 86.703q16.08.001 24.047-8.219c5.313-5.476 7.97-14.312 7.97-26.5q0-18.28-7.97-26.484-7.968-8.217-24.047-8.219h-15.64v69.422Zm0 0"/><g fill="#fff"><path d="M336.041 1045.626v35.14h-92.64v56.203h84.062v34.703h-84.062v86.25h-41.969v-212.296ZM388.606 1078.594q-10.893 0-17.719-6.61-6.813-6.608-6.812-17.062 0-10.312 6.812-16.921 6.826-6.61 17.719-6.61c4.844 0 9.148 1.024 12.922 3.063q5.67 3.046 8.78 8.343 3.125 5.299 3.126 12.125-.001 6.831-3.125 12.204-3.11 5.362-8.781 8.421c-3.774 2.032-8.078 3.047-12.922 3.047m-20.031 179.328v-160.171h40.218v160.171ZM498.238 1260.97q-21.628 0-33.032-11.688-11.39-11.686-11.39-35.5v-180.36h40.219v178.766q-.001 14.658 12.203 14.656 3.48.002 7.406-1.156l2.031.578 3.625 30.938c-2.23 1.156-5.183 2.07-8.86 2.75q-5.517 1.014-12.202 1.015M682.084 1186.907H579.131q1.732 20.923 11.89 30.437c6.782 6.336 16.032 9.5 27.75 9.5q13.794 0 22.36-5.156 8.56-5.155 13.797-15.61h3.047l26.719 17.141q-7.845 16.844-23.672 27.297-15.832 10.453-42.25 10.453-24.832.001-42.906-9.437-18.082-9.436-27.891-28.094-9.797-18.655-9.797-45.531 0-27.294 10.313-46.031c6.875-12.489 16.164-21.805 27.875-27.954 11.718-6.144 24.882-9.218 39.5-9.218 22.656 0 40.007 6.007 52.062 18.015q18.076 18.002 18.078 52.844-.001 12.644-.875 19.61Zm-34.562-25.985c-.387-12.195-3.219-21.078-8.5-26.64-5.274-5.57-12.992-8.36-23.156-8.36q-30.505.001-35.86 35Zm0 0"/></g><path fill="#00a811" d="M710.705 1248.188q0-17.561 3.844-28.312 3.844-10.749 13.14-20.032 9.294-9.294 29.626-24.11l23.375-16.983q12.92-9.452 21.047-17.438 8.136-7.98 12.86-17.344 4.717-9.373 4.718-20.984-.001-18.874-10.016-28.453-10.02-9.593-31.36-9.594-16.844.002-29.921 7.844-13.067 7.845-20.906 22.219l-3.344.578-14.953-15.688c7.164-11.613 16.578-20.734 28.234-27.36 11.664-6.632 25.297-9.952 40.89-9.952q22.642.002 37.595 7.703 14.965 7.689 22.078 21.265 7.125 13.58 7.125 31.438 0 14.238-5.953 26.578-5.956 12.347-16.844 23.234-10.893 10.892-27.313 22.938l-23.656 17.281q-13.219 9.72-20.344 16.547c-4.742 4.555-8.199 8.984-10.375 13.297-2.18 4.305-3.265 9.117-3.265 14.437h107.75v20.625H710.705Zm0 0"/><g fill="#fff"><path d="M927.233 1257.922h-38.485v-212.296h54.891l53.719 156.093h3.047l53.437-156.093h53.594v212.296h-39.797v-140.265l-3.625-.594-49.078 140.86h-35l-49.078-140.86-3.625.594ZM1239.141 1045.626c34.47 0 60.774 8.906 78.922 26.718 18.157 17.813 27.235 44.29 27.235 79.422q0 52.582-27.235 79.375-27.22 26.782-78.922 26.781h-76.375v-212.296Zm-2.468 177.015q32.812.002 49.078-16.765 16.266-16.78 16.265-54.11c0-24.875-5.421-42.898-16.265-54.078q-16.266-16.78-49.078-16.781h-31.938v141.734Zm0 0"/></g><path fill="#fff" d="M231.306 1346.267v10.5h-27.72v16.828h25.157v10.375h-25.156v25.813h-12.563v-63.516ZM268.29 1409.783h-12.562v-63.516h12.562ZM310.749 1346.267v53h28.547v10.516h-41.11v-63.516ZM375.54 1381.892v17.375h30.327v10.516h-42.89v-63.516h42.187v10.5H375.54v14.86h25.89v10.265ZM450.845 1410.69q-6.609-.002-11.766-1.626-5.145-1.623-8.578-4.266c-2.281-1.77-4.031-3.71-5.25-5.828l6.906-8.437h1.094q2.859 4.266 7.266 6.781c2.945 1.68 6.39 2.516 10.328 2.516q5.043.001 7.61-2.125 2.56-2.12 2.562-5.86c0-1.507-.278-2.77-.828-3.78q-.831-1.532-2.75-2.61-1.911-1.09-5.157-1.875l-8.171-1.86q-8.565-1.966-12.766-6.5-4.189-4.543-4.188-11.797 0-5.39 2.688-9.468 2.7-4.092 7.844-6.344 5.156-2.264 12.328-2.266c4.894 0 9.086.649 12.578 1.938q5.233 1.938 8.844 5.922l-6.22 8.515h-1.077q-2.706-2.812-6.172-4.218-3.47-1.42-7.953-1.422-5.174 0-7.875 1.828-2.689 1.83-2.688 5.031 0 3 1.89 4.781 1.889 1.784 6.548 2.782l8.344 1.734q9.248 1.97 13.421 6.64 4.173 4.66 4.172 12.172 0 5.956-2.562 10.375-2.567 4.408-7.735 6.844-5.175 2.42-12.687 2.422M575.863 1346.267v10.547h-18.328v52.969h-12.516v-52.969h-18.344v-10.547ZM625.573 1410.69q-8.737 0-15.406-3.563-6.658-3.562-10.438-10.875-3.783-7.324-3.781-18.235-.002-10.906 3.781-18.219c2.52-4.882 6-8.515 10.438-10.89q6.669-3.563 15.406-3.563 8.73.001 15.375 3.547 6.656 3.533 10.406 10.875 3.764 7.347 3.766 18.25c0 7.274-1.258 13.356-3.766 18.25q-3.75 7.348-10.406 10.89-6.645 3.533-15.375 3.532m0-10.907q8.076.002 12.344-5.188 4.265-5.186 4.265-16.578 0-11.373-4.265-16.594c-2.844-3.476-6.961-5.218-12.344-5.218q-8.128.002-12.406 5.218-4.283 5.22-4.282 16.594-.001 11.392 4.282 16.578 4.278 5.19 12.406 5.188M727.608 1409.783h-11.516v-63.516h16.422l16.078 46.703h.922l15.984-46.703h16.032v63.516h-11.907v-41.969l-1.078-.172-14.687 42.14h-10.469l-14.688-42.14-1.093.172ZM864.13 1409.783h-13.204l-4.781-14.64h-24.328l-4.782 14.64H804.13l21.938-63.516h16.125Zm-30.75-50.266-8.173 25.063h17.469l-8.219-25.063ZM886.687 1409.783v-63.516h25.516q9.857 0 14.875 4.547 5.016 4.535 5.016 12.516 0 5.782-2.938 9.484-2.925 3.69-8.75 5.64v.907q2.999 1.313 4.844 3.875 1.84 2.565 3.5 7.61l6.344 18.937h-12.907l-6.203-18.985q-.97-2.87-2.172-4.453a6.7 6.7 0 0 0-3.03-2.297q-1.845-.716-4.798-.718h-6.734v26.453Zm23.985-36.406c6.082 0 9.125-2.836 9.125-8.516q-.001-8.655-9.125-8.656H899.25v17.172ZM959.429 1409.783v-63.516h12.562v25.938h1.39l21.204-25.938h12.86v1.078l-23.376 28.891 25.813 32.453v1.094h-14.203l-22.297-27.422h-1.39v27.422ZM1054.334 1346.267c10.313 0 18.18 2.668 23.61 8q8.156 7.987 8.156 23.75 0 15.736-8.156 23.75c-5.43 5.344-13.297 8.016-23.61 8.016h-22.86v-63.516Zm-.734 52.953q9.809 0 14.672-5.015 4.875-5.015 4.875-16.188 0-11.156-4.875-16.172-4.864-5.028-14.672-5.03h-9.563v42.405ZM1139.107 1410.69q-8.737 0-15.407-3.563-6.656-3.562-10.437-10.875-3.783-7.324-3.781-18.235-.002-10.906 3.781-18.219c2.52-4.882 6-8.515 10.437-10.89q6.67-3.563 15.407-3.563 8.73.001 15.375 3.547 6.656 3.533 10.406 10.875 3.764 7.347 3.766 18.25c0 7.274-1.258 13.356-3.766 18.25q-3.75 7.348-10.406 10.89-6.645 3.533-15.375 3.532m0-10.907c5.383 0 9.5-1.727 12.343-5.188q4.266-5.186 4.266-16.578 0-11.373-4.266-16.594c-2.843-3.476-6.96-5.218-12.343-5.218q-8.128.002-12.407 5.218-4.281 5.22-4.28 16.594-.001 11.392 4.28 16.578 4.279 5.19 12.407 5.188M1217.37 1409.783h-14.031l-14.562-63.516h12.515l9.61 44.656h1.078l11.39-44.656h10.735l11.593 44.656h1.094l9.64-44.656h12.079l-14.516 63.516h-14.078l-11.125-40.969h-.906ZM1303.971 1409.783H1291.8v-63.516h14.39l25.5 40.922 1.126-.172v-40.75h12.078v63.516h-12.86l-26.984-43.703-1.078.172Zm0 0"/></svg>